<svg width="148" height="19" viewBox="0 0 148 19" fill="none" xmlns="http://www.w3.org/2000/svg">
<path d="M6.70455 18H0.517045V0.545454H6.75568C8.51136 0.545454 10.0227 0.894886 11.2898 1.59375C12.5568 2.28693 13.5313 3.28409 14.2131 4.58523C14.9006 5.88636 15.2443 7.44318 15.2443 9.25568C15.2443 11.0739 14.9006 12.6364 14.2131 13.9432C13.5313 15.25 12.5511 16.2528 11.2727 16.9517C10 17.6506 8.47727 18 6.70455 18ZM4.20739 14.8381H6.55114C7.64205 14.8381 8.55966 14.6449 9.30398 14.2585C10.054 13.8665 10.6165 13.2614 10.9915 12.4432C11.3722 11.6193 11.5625 10.5568 11.5625 9.25568C11.5625 7.96591 11.3722 6.91193 10.9915 6.09375C10.6165 5.27557 10.0568 4.6733 9.3125 4.28693C8.56818 3.90057 7.65057 3.70739 6.55966 3.70739H4.20739V14.8381ZM29.5883 0.545454V18H25.898V0.545454H29.5883ZM71.1843 0.545454V18H67.4939V0.545454H71.1843ZM91.6092 5.56534C91.541 4.87784 91.2484 4.34375 90.7314 3.96307C90.2143 3.58239 89.5126 3.39204 88.6263 3.39204C88.024 3.39204 87.5155 3.47727 87.1007 3.64773C86.6859 3.8125 86.3678 4.04261 86.1462 4.33807C85.9303 4.63352 85.8223 4.96875 85.8223 5.34375C85.8109 5.65625 85.8763 5.92898 86.0183 6.16193C86.166 6.39489 86.3678 6.59659 86.6234 6.76705C86.8791 6.93182 87.1746 7.0767 87.5098 7.2017C87.845 7.32102 88.203 7.4233 88.5837 7.50852L90.1518 7.88352C90.9132 8.05398 91.6121 8.28125 92.2484 8.56534C92.8848 8.84943 93.4359 9.19886 93.9018 9.61364C94.3678 10.0284 94.7285 10.517 94.9842 11.0795C95.2456 11.642 95.3791 12.2869 95.3848 13.0142C95.3791 14.0824 95.1064 15.0085 94.5666 15.7926C94.0325 16.571 93.2598 17.1761 92.2484 17.608C91.2428 18.0341 90.0297 18.2472 88.6092 18.2472C87.2001 18.2472 85.9729 18.0312 84.9274 17.5994C83.8876 17.1676 83.0751 16.5284 82.4899 15.6818C81.9104 14.8295 81.6064 13.7756 81.578 12.5199H85.149C85.1888 13.1051 85.3564 13.5937 85.6518 13.9858C85.953 14.3722 86.3535 14.6648 86.8535 14.8636C87.3592 15.0568 87.9303 15.1534 88.5666 15.1534C89.1916 15.1534 89.7342 15.0625 90.1945 14.8807C90.6604 14.6989 91.0212 14.446 91.2768 14.1222C91.5325 13.7983 91.6604 13.4261 91.6604 13.0057C91.6604 12.6136 91.5439 12.2841 91.3109 12.017C91.0837 11.75 90.7484 11.5227 90.3053 11.3352C89.8678 11.1477 89.3308 10.9773 88.6945 10.8239L86.7939 10.3466C85.3223 9.98864 84.1604 9.42898 83.3081 8.66761C82.4558 7.90625 82.0325 6.88068 82.0382 5.59091C82.0325 4.53409 82.3138 3.6108 82.882 2.82102C83.4558 2.03125 84.2428 1.41477 85.2428 0.971591C86.2428 0.528409 87.3791 0.306818 88.6518 0.306818C89.9473 0.306818 91.078 0.528409 92.0439 0.971591C93.0155 1.41477 93.7712 2.03125 94.3109 2.82102C94.8507 3.6108 95.1291 4.52557 95.1462 5.56534H91.6092ZM105.787 18V0.545454H117.548V3.58807H109.477V7.74716H116.943V10.7898H109.477V14.9574H117.583V18H105.787ZM128.402 0.545454H132.953L137.76 12.2727H137.965L142.772 0.545454H147.323V18H143.743V6.6392H143.598L139.081 17.9148H136.644L132.127 6.59659H131.982V18H128.402V0.545454Z" fill="#04144E"/>
</svg>
