<svg width="150" height="29" viewBox="0 0 150 29" fill="none" xmlns="http://www.w3.org/2000/svg">
<path d="M7.70455 23H1.51705V5.54545H7.75568C9.51136 5.54545 11.0227 5.89489 12.2898 6.59375C13.5568 7.28693 14.5313 8.28409 15.2131 9.58523C15.9006 10.8864 16.2443 12.4432 16.2443 14.2557C16.2443 16.0739 15.9006 17.6364 15.2131 18.9432C14.5313 20.25 13.5511 21.2528 12.2727 21.9517C11 22.6506 9.47727 23 7.70455 23ZM5.20739 19.8381H7.55114C8.64205 19.8381 9.55966 19.6449 10.304 19.2585C11.054 18.8665 11.6165 18.2614 11.9915 17.4432C12.3722 16.6193 12.5625 15.5568 12.5625 14.2557C12.5625 12.9659 12.3722 11.9119 11.9915 11.0938C11.6165 10.2756 11.0568 9.6733 10.3125 9.28693C9.56818 8.90057 8.65057 8.70739 7.55966 8.70739H5.20739V19.8381ZM30.5883 5.54545V23H26.898V5.54545H30.5883ZM72.1843 5.54545V23H68.4939V5.54545H72.1843ZM92.6092 10.5653C92.541 9.87784 92.2484 9.34375 91.7314 8.96307C91.2143 8.58239 90.5126 8.39204 89.6263 8.39204C89.024 8.39204 88.5155 8.47727 88.1007 8.64773C87.6859 8.8125 87.3678 9.04261 87.1462 9.33807C86.9303 9.63352 86.8223 9.96875 86.8223 10.3438C86.8109 10.6562 86.8763 10.929 87.0183 11.1619C87.166 11.3949 87.3678 11.5966 87.6234 11.767C87.8791 11.9318 88.1746 12.0767 88.5098 12.2017C88.845 12.321 89.203 12.4233 89.5837 12.5085L91.1518 12.8835C91.9132 13.054 92.6121 13.2812 93.2484 13.5653C93.8848 13.8494 94.4359 14.1989 94.9018 14.6136C95.3678 15.0284 95.7285 15.517 95.9842 16.0795C96.2456 16.642 96.3791 17.2869 96.3848 18.0142C96.3791 19.0824 96.1064 20.0085 95.5666 20.7926C95.0325 21.571 94.2598 22.1761 93.2484 22.608C92.2428 23.0341 91.0297 23.2472 89.6092 23.2472C88.2001 23.2472 86.9729 23.0312 85.9274 22.5994C84.8876 22.1676 84.0751 21.5284 83.4899 20.6818C82.9104 19.8295 82.6064 18.7756 82.578 17.5199H86.149C86.1888 18.1051 86.3564 18.5937 86.6518 18.9858C86.953 19.3722 87.3535 19.6648 87.8535 19.8636C88.3592 20.0568 88.9303 20.1534 89.5666 20.1534C90.1916 20.1534 90.7342 20.0625 91.1945 19.8807C91.6604 19.6989 92.0212 19.446 92.2768 19.1222C92.5325 18.7983 92.6604 18.4261 92.6604 18.0057C92.6604 17.6136 92.5439 17.2841 92.3109 17.017C92.0837 16.75 91.7484 16.5227 91.3053 16.3352C90.8678 16.1477 90.3308 15.9773 89.6945 15.8239L87.7939 15.3466C86.3223 14.9886 85.1604 14.429 84.3081 13.6676C83.4558 12.9062 83.0325 11.8807 83.0382 10.5909C83.0325 9.53409 83.3138 8.6108 83.882 7.82102C84.4558 7.03125 85.2428 6.41477 86.2428 5.97159C87.2428 5.52841 88.3791 5.30682 89.6518 5.30682C90.9473 5.30682 92.078 5.52841 93.0439 5.97159C94.0155 6.41477 94.7712 7.03125 95.3109 7.82102C95.8507 8.6108 96.1291 9.52557 96.1462 10.5653H92.6092ZM106.787 23V5.54545H118.548V8.58807H110.477V12.7472H117.943V15.7898H110.477V19.9574H118.583V23H106.787ZM129.402 5.54545H133.953L138.76 17.2727H138.965L143.772 5.54545H148.323V23H144.743V11.6392H144.598L140.081 22.9148H137.644L133.127 11.5966H132.982V23H129.402V5.54545Z" fill="white"/>
<path fill-rule="evenodd" clip-rule="evenodd" d="M53.3464 22.7188C52.6097 22.7624 52.1142 22.7047 51.5 22.5C49.9519 21.984 49.598 23.5374 49.2448 25.0876C48.9136 26.5415 48.583 27.9924 47.2687 27.731C44.553 27.1908 42.0584 25.8574 40.1005 23.8995C38.1426 21.9416 36.8092 19.447 36.269 16.7313C35.7288 14.0155 36.0061 11.2006 37.0657 8.64243C38.1253 6.08427 39.9197 3.89777 42.222 2.35943C44.5243 0.821086 47.2311 -3.30193e-08 50 0V7.98794C48.8109 7.98794 47.6486 8.34054 46.6599 9.00115C45.6712 9.66177 44.9006 10.6007 44.4456 11.6993C43.9905 12.7978 43.8715 14.0067 44.1035 15.1729C44.3354 16.3391 44.908 17.4104 45.7488 18.2512C46.5896 19.092 47.6609 19.6646 48.8271 19.8965C49.9933 20.1285 51.5 19.5 52.5 19.5C52.9602 19.6449 53.1581 21.2775 53.3464 22.7188Z" fill="#415AB4"/>
<path d="M52.5 19.5C52.9602 19.6449 53.1581 21.2775 53.3464 22.7188C54.6611 22.641 53.2439 22.7407 58.1406 22.278C58.1406 22.278 58.6133 19 57.5 19C54 19 55.5281 18.9565 52.5 19.5Z" fill="#415AB4"/>
<path d="M59.4868 28.231C58 28.231 58.5 23.5 58.1406 22.278C53.2439 22.7407 54.6611 22.641 53.3464 22.7188C53.5357 24.1683 53.687 25.4684 54 25C54.6606 24.0113 54.5 27 54.9989 27.731C55.4977 28.462 60.9736 28.231 59.4868 28.231Z" fill="#415AB4"/>
</svg>
