<svg width="148" height="29" viewBox="0 0 148 29" fill="none" xmlns="http://www.w3.org/2000/svg">
<path fill-rule="evenodd" clip-rule="evenodd" d="M113.69 13.7273V5H110V22.4545H113.69V13.7273Z" fill="white"/>
<path fill-rule="evenodd" clip-rule="evenodd" d="M6.70455 23H0.517052V5.54545H6.75568C8.51136 5.54545 10.0227 5.89489 11.2898 6.59375C12.5568 7.28693 13.5313 8.28409 14.2131 9.58523C14.9006 10.8864 15.2443 12.4432 15.2443 14.2557C15.2443 16.0739 14.9006 17.6364 14.2131 18.9432C13.5313 20.25 12.5511 21.2528 11.2727 21.9517C10 22.6506 8.47727 23 6.70455 23ZM4.20739 19.8381H6.55114C7.64205 19.8381 8.55966 19.6449 9.304 19.2585C10.054 18.8665 10.6165 18.2614 10.9915 17.4432C11.3722 16.6193 11.5625 15.5568 11.5625 14.2557C11.5625 12.9659 11.3722 11.9119 10.9915 11.0938C10.6165 10.2756 10.0568 9.6733 9.3125 9.28693C8.56818 8.90057 7.65057 8.70739 6.55966 8.70739H4.20739V19.8381ZM29.5883 5.54545V23H25.898V5.54545H29.5883ZM71.1843 5.54545V14.2727V23H67.4939V5.54545H71.1843ZM91.6092 10.5653C91.541 9.87784 91.2484 9.34375 90.7314 8.96307C90.2143 8.58239 89.5126 8.39204 88.6263 8.39204C88.024 8.39204 87.5155 8.47727 87.1007 8.64773C86.6859 8.8125 86.3678 9.04261 86.1462 9.33807C85.9303 9.63352 85.8223 9.96875 85.8223 10.3438C85.8109 10.6562 85.8763 10.929 86.0183 11.1619C86.166 11.3949 86.3678 11.5966 86.6234 11.767C86.8791 11.9318 87.1746 12.0767 87.5098 12.2017C87.845 12.321 88.203 12.4233 88.5837 12.5085L90.1518 12.8835C90.9132 13.054 91.6121 13.2812 92.2484 13.5653C92.8848 13.8494 93.4359 14.1989 93.9018 14.6136C94.3678 15.0284 94.7285 15.517 94.9842 16.0795C95.2456 16.642 95.3791 17.2869 95.3848 18.0142C95.3791 19.0824 95.1064 20.0085 94.5666 20.7926C94.0325 21.571 93.2598 22.1761 92.2484 22.608C91.2428 23.0341 90.0297 23.2472 88.6092 23.2472C87.2001 23.2472 85.9729 23.0312 84.9274 22.5994C83.8876 22.1676 83.0751 21.5284 82.4899 20.6818C81.9104 19.8295 81.6064 18.7756 81.578 17.5199H85.149C85.1888 18.1051 85.3564 18.5937 85.6518 18.9858C85.953 19.3722 86.3535 19.6648 86.8535 19.8636C87.3592 20.0568 87.9303 20.1534 88.5666 20.1534C89.1916 20.1534 89.7342 20.0625 90.1945 19.8807C90.6604 19.6989 91.0212 19.446 91.2768 19.1222C91.5325 18.7983 91.6604 18.4261 91.6604 18.0057C91.6604 17.6136 91.5439 17.2841 91.3109 17.017C91.0837 16.75 90.7484 16.5227 90.3053 16.3352C89.8678 16.1477 89.3308 15.9773 88.6945 15.8239L86.7939 15.3466C85.3223 14.9886 84.1604 14.429 83.3081 13.6676C82.4558 12.9062 82.0325 11.8807 82.0382 10.5909C82.0325 9.53409 82.3138 8.6108 82.882 7.82102C83.4558 7.03125 84.2428 6.41477 85.2428 5.97159C86.2428 5.52841 87.3791 5.30682 88.6518 5.30682C89.9473 5.30682 91.078 5.52841 92.0439 5.97159C93.0155 6.41477 93.7712 7.03125 94.3109 7.82102C94.8507 8.6108 95.1291 9.52557 95.1462 10.5653H91.6092ZM128.402 5.54545H132.953L137.76 17.2727H137.965L142.772 5.54545H147.323V23H143.743V11.6392H143.598L139.081 22.9148H136.644L132.127 11.5966H131.982V23H128.402V5.54545Z" fill="white"/>
<path fill-rule="evenodd" clip-rule="evenodd" d="M54.3464 22.7188C53.6097 22.7624 53.1142 22.7047 52.5 22.5C50.9519 21.984 50.598 23.5374 50.2448 25.0876C49.9136 26.5415 49.583 27.9924 48.2687 27.731C45.553 27.1908 43.0584 25.8574 41.1005 23.8995C39.1426 21.9416 37.8092 19.447 37.269 16.7313C36.7288 14.0155 37.0061 11.2006 38.0657 8.64243C39.1253 6.08427 40.9197 3.89777 43.222 2.35943C45.5243 0.821086 48.2311 -3.30193e-08 51 0V7.98794C49.8109 7.98794 48.6486 8.34054 47.6599 9.00115C46.6712 9.66177 45.9006 10.6007 45.4456 11.6993C44.9905 12.7978 44.8715 14.0067 45.1035 15.1729C45.3354 16.3391 45.908 17.4104 46.7488 18.2512C47.5896 19.092 48.6609 19.6646 49.8271 19.8965C50.9933 20.1285 52.5 19.5 53.5 19.5C53.9602 19.6449 54.1581 21.2775 54.3464 22.7188Z" fill="#415AB4"/>
<path d="M53.5 19.5C53.9602 19.6449 54.1581 21.2775 54.3464 22.7188C55.6611 22.641 54.2439 22.7407 59.1406 22.278C59.1406 22.278 59.6133 19 58.5 19C55 19 56.5281 18.9565 53.5 19.5Z" fill="#415AB4"/>
<path d="M60.4868 28.231C59 28.231 59.5 23.5 59.1406 22.278C54.2439 22.7407 55.6611 22.641 54.3464 22.7188C54.5357 24.1683 54.687 25.4684 55 25C55.6606 24.0113 55.5 27 55.9989 27.731C56.4977 28.462 61.9736 28.231 60.4868 28.231Z" fill="#415AB4"/>
</svg>
